<svg width="28" height="35" viewBox="0 0 28 35" fill="none" xmlns="http://www.w3.org/2000/svg">
<path fill-rule="evenodd" clip-rule="evenodd" d="M24.9426 10.0575H2.4138L2.4138 32.5862L24.9426 32.5862L24.9426 10.0575ZM2.4138 7.64365C1.08069 7.64365 0 8.72435 0 10.0575V32.5862C0 33.9193 1.08069 35 2.4138 35H24.9426C26.2757 35 27.3564 33.9193 27.3564 32.5862V10.0575C27.3564 8.72435 26.2757 7.64365 24.9426 7.64365H2.4138Z" fill="black"/>
<path fill-rule="evenodd" clip-rule="evenodd" d="M19.5098 9.1288L19.5081 9.20671L19.5115 9.28457L19.5115 9.28637L19.5115 15.2874H21.9253V9.28637C21.9253 9.25086 21.9245 9.21552 21.923 9.18038C21.9245 9.10978 21.9253 9.03897 21.9253 8.96796C21.9253 4.01509 18.2329 3.98192e-07 13.6782 0C9.1234 -3.98193e-07 5.43103 4.01509 5.43103 8.96796C5.43103 9.03914 5.43179 9.11013 5.43331 9.18091C5.43181 9.21588 5.43105 9.25104 5.43105 9.28637L5.43105 15.2874H7.84484L7.84484 9.28637L7.84488 9.28458L7.84822 9.20692L7.84655 9.12922C7.8454 9.07565 7.84482 9.0219 7.84482 8.96796C7.84483 5.15381 10.6429 2.41381 13.6782 2.41381C16.7134 2.41381 19.5115 5.15382 19.5115 8.96796C19.5115 9.02177 19.5109 9.07538 19.5098 9.1288Z" fill="black"/>
</svg>
