<svg width="439" height="552" viewBox="0 0 439 552" fill="none" xmlns="http://www.w3.org/2000/svg">
<path d="M9.23567 542V448.305H70.4052V461.958H24.8961V485.515H61.5711V499.168H24.8961V528.213H71.8776V542H9.23567ZM78.1236 509.608V497.026H119.751V509.608H78.1236ZM174.655 543.071C150.428 543.071 128.61 527.143 128.61 495.152C128.61 463.162 150.695 447.234 174.655 447.234C196.338 447.234 211.999 459.147 215.345 477.752L199.819 481.098C197.142 468.516 187.638 460.887 174.655 460.887C157.522 460.887 144.538 472.933 144.538 495.152C144.538 517.372 157.388 529.284 174.655 529.284C187.772 529.284 196.606 522.19 199.551 510.411L215.211 513.758C210.66 531.827 195.669 543.071 174.655 543.071ZM272.185 543.071C245.148 543.071 225.338 522.859 225.338 495.152C225.338 467.445 245.148 447.234 272.185 447.234C299.223 447.234 319.033 467.445 319.033 495.152C319.033 522.859 299.223 543.071 272.185 543.071ZM272.185 529.284C290.255 529.284 303.239 514.962 303.239 495.152C303.239 475.343 290.255 460.887 272.185 460.887C254.116 460.887 241.132 475.343 241.132 495.152C241.132 514.962 254.116 529.284 272.185 529.284ZM333.404 542V448.305H351.474L381.323 519.513L411.171 448.305H429.241V542H414.25V477.618L387.48 542H375.299L348.395 477.618V542H333.404Z" fill="#1D1D1D"/>
<mask id="mask0_12_2" style="mask-type:luminance" maskUnits="userSpaceOnUse" x="10" y="0" width="421" height="420">
<path d="M10.0007 0H430.001V420H10.0007V0Z" fill="white"/>
</mask>
<g mask="url(#mask0_12_2)">
<path d="M10.0007 0V420H430.001V0H10.0007ZM23.3147 13.314H211.412L23.3147 258.447V13.314ZM218.3 406.686H23.3147V284.718H218.3V406.686ZM218.3 271.393H30.2027L218.3 26.271V271.393ZM416.687 406.686H231.624V284.718H416.687V406.686ZM416.687 271.393H231.624V13.314H416.687V271.393ZM272.942 213.255C276.669 217.382 280.901 221.025 285.531 224.102C295.633 231.036 307.625 234.691 319.877 234.57C327.447 234.57 334.965 233.31 342.105 230.801C348.842 228.343 355.07 224.67 360.48 219.964C365.993 215.117 370.434 209.174 373.521 202.514C376.922 195.117 378.616 187.05 378.477 178.91C378.626 170.994 376.993 163.146 373.7 155.946C370.686 149.764 366.399 144.289 361.121 139.881C355.941 135.79 350.059 132.677 343.764 130.693C338.28 128.786 332.56 127.641 326.765 127.292L373.427 69.615V63.735H274.412V77.238H349.823L303.896 134.274V139.881H317.766C329.987 139.139 342.071 142.788 351.839 150.171C355.788 153.692 358.901 158.05 360.952 162.927C363.003 167.805 363.94 173.078 363.693 178.363C363.761 184.272 362.669 190.137 360.48 195.626C358.395 200.609 355.262 205.086 351.293 208.751C347.354 212.515 342.702 215.453 337.611 217.392C332.025 219.492 326.114 220.552 320.16 220.51C310.235 220.628 300.526 217.608 292.419 211.88C288.779 209.269 285.506 206.183 282.686 202.702C279.92 199.507 277.373 196.129 275.063 192.591V191.856L264.132 199.762L264.594 200.497C267.051 204.96 269.844 209.223 272.952 213.266L272.942 213.255Z" fill="#1D1D1D"/>
</g>
</svg>
