<svg width="512" height="512" viewBox="0 0 512 512" fill="none" xmlns="http://www.w3.org/2000/svg">
<path d="M325.21 175.834H185.793C177.87 175.834 170.271 178.982 164.668 184.584C159.066 190.187 155.918 197.786 155.918 205.709V305.292C155.918 313.216 159.066 320.814 164.668 326.417C170.271 332.02 177.87 335.167 185.793 335.167H325.21C333.133 335.167 340.732 332.02 346.334 326.417C351.937 320.814 355.085 313.216 355.085 305.292V205.709C355.085 197.786 351.937 190.187 346.334 184.584C340.732 178.982 333.133 175.834 325.21 175.834ZM185.793 315.251C183.152 315.251 180.619 314.201 178.751 312.334C176.884 310.466 175.835 307.933 175.835 305.292V281.193L208.697 248.43C210.559 246.606 213.061 245.584 215.668 245.584C218.275 245.584 220.777 246.606 222.639 248.43L289.459 315.251H185.793ZM335.168 305.292C335.168 307.933 334.119 310.466 332.251 312.334C330.384 314.201 327.851 315.251 325.21 315.251H317.542L279.6 277.11L288.364 268.347C290.225 266.522 292.728 265.5 295.335 265.5C297.941 265.5 300.444 266.522 302.305 268.347L335.168 301.11V305.292ZM335.168 273.027L316.446 254.405C310.771 248.952 303.205 245.907 295.335 245.907C287.464 245.907 279.899 248.952 274.223 254.405L265.46 263.169L236.78 234.489C231.104 229.036 223.539 225.99 215.668 225.99C207.797 225.99 200.232 229.036 194.556 234.489L175.835 253.111V205.709C175.835 203.068 176.884 200.535 178.751 198.667C180.619 196.8 183.152 195.751 185.793 195.751H325.21C327.851 195.751 330.384 196.8 332.251 198.667C334.119 200.535 335.168 203.068 335.168 205.709V273.027Z" fill="black"/>
</svg>
